<?xml version="1.0" encoding="UTF-8" standalone="no"?>
<!-- Created with Inkscape (http://www.inkscape.org/) -->

<svg
   width="1240"
   height="400"
   viewBox="0 0 328.08333 105.83333"
   version="1.1"
   id="svg1"
   inkscape:export-filename="waveform.svg"
   inkscape:export-xdpi="96"
   inkscape:export-ydpi="96"
   xmlns:inkscape="http://www.inkscape.org/namespaces/inkscape"
   xmlns:sodipodi="http://sodipodi.sourceforge.net/DTD/sodipodi-0.dtd"
   xmlns="http://www.w3.org/2000/svg"
   xmlns:svg="http://www.w3.org/2000/svg">
  <sodipodi:namedview
     id="namedview1"
     pagecolor="#505050"
     bordercolor="#eeeeee"
     borderopacity="1"
     inkscape:showpageshadow="0"
     inkscape:pageopacity="0"
     inkscape:pagecheckerboard="0"
     inkscape:deskcolor="#505050"
     inkscape:document-units="mm">
    <inkscape:page
       x="0"
       y="0"
       width="328.08334"
       height="105.83333"
       id="page2"
       margin="0"
       bleed="0" />
  </sodipodi:namedview>
  <defs
     id="defs1">
    <filter
       inkscape:collect="always"
       style="color-interpolation-filters:sRGB"
       id="filter44"
       x="-0.13728074"
       y="-0.51173747"
       width="1.2745615"
       height="2.0234749">
      <feGaussianBlur
         inkscape:collect="always"
         stdDeviation="13.038913"
         id="feGaussianBlur44" />
    </filter>
    <clipPath
       clipPathUnits="userSpaceOnUse"
       id="clipPath76">
      <path
         id="path77"
         style="fill:#ff0000;fill-opacity:1;fill-rule:nonzero;stroke:none;stroke-width:0.247276"
         d="M -31.251993,-13.747695 V 127.40235 H 300.16995 V -13.747695 Z m 225.550053,42.284 c 2.81049,0.04361 8.07717,3.430256 8.43802,5.810188 0.0339,-0.0015 0.0692,-0.0018 0.10651,0 0.12011,0.0053 0.40365,-0.10358 0.36066,0.01649 -0.0486,0.135308 -0.26458,0.06625 -0.3985,0.08887 -0.0185,0.0031 -0.0367,0.0061 -0.0551,0.009 0.0245,0.286477 -0.0262,0.556909 -0.16491,0.803349 -0.0981,0.174237 -0.19049,0.352759 -0.2775,0.534237 0.88844,3.052342 5.66724,9.888247 3.28887,10.33621 -0.47676,0.0898 -0.94966,0.20873 -1.43047,0.269116 -1.84565,0.231797 -4.59932,-0.05332 -6.35631,-0.527746 -0.95292,-0.257306 -1.87399,-0.634405 -2.81096,-0.951637 -1.16857,-1.027934 -2.73326,-1.692554 -3.50565,-3.083588 -0.83113,-1.496828 -0.88804,-3.369237 -1.03992,-5.102202 -0.0551,-0.629154 0.27047,-1.230756 0.4312,-1.838869 0.49472,-1.871759 1.08415,-3.727275 1.79253,-5.518604 0.24024,-0.607512 0.83461,-0.857001 1.62155,-0.844792 z m 8.45157,5.924526 c -0.003,-0.03788 -0.008,-0.07591 -0.0135,-0.114338 -0.18646,0.0086 -0.32249,0.06523 -0.41438,0.163767 0.14232,-0.01107 0.28505,-0.02703 0.42793,-0.04943 z m -18.31493,0.805347 c 2.82767,0.165232 3.59735,11.969061 0.5849,12.039772 -3.45914,0.0812 -6.84949,0.969843 -10.18337,1.893291 -1.9506,0.545838 -1.07168,0.262411 -2.64745,0.816831 -2.91678,1.026231 -5.95082,-10.717599 -2.96232,-11.472085 1.91569,-0.483642 0.93975,-0.243507 2.92915,-0.718473 3.96424,-1.042696 7.99223,-1.712358 11.99879,-2.538366 0.0954,-0.01968 0.18909,-0.02635 0.2803,-0.02096 z m -79.7328,3.530948 h 4.8e-4 4.8e-4 4.7e-4 4.8e-4 4.8e-4 c 9.6e-4,5.9e-5 0.003,1.92e-4 0.004,5.11e-4 h 4.8e-4 l 4.8e-4,5.12e-4 4.8e-4,5.11e-4 h 4.7e-4 v 5.11e-4 h 4.8e-4 v 5.11e-4 l 4.8e-4,5.12e-4 v 5.11e-4 5.11e-4 5.12e-4 5.11e-4 c 3e-5,0.01835 -0.0434,0.07608 -0.0551,0.104848 -0.2454,0.07618 -0.58108,0.184412 -0.90958,0.281098 -0.92388,0.527445 -1.74685,1.441984 -1.96445,2.421038 -0.40683,1.830275 0.23485,3.753922 0.35225,5.630942 0.21122,3.376295 9.2803,-10.095321 9.60081,-6.728871 0.18997,1.995261 0.95858,4.023855 0.56994,5.985934 -0.50304,2.539568 -3.09209,3.476388 -5.0174,4.075171 -1.83973,0.404587 -3.70037,0.864383 -5.58128,0.980096 -0.44839,0.02759 -0.89819,0.01089 -1.34731,0.01148 -0.628115,7.67e-4 -1.25602,-0.005 -1.884097,-0.0075 -2.711062,-0.02237 -5.422462,-0.03577 -8.133428,-0.06441 -1.068734,-0.0113 -3.385489,-0.03413 -4.517999,-0.157772 -0.596307,-0.0651 -1.183882,-0.20303 -1.775712,-0.304565 -3.108339,-0.533271 0.63751,-12.683101 3.609821,-11.574439 0.846822,0.315859 2.491208,0.412198 3.259443,0.473821 1.439286,0.115457 3.773848,0.229675 5.201002,0.210699 0.713052,-0.0095 1.424281,-0.08153 2.136367,-0.122326 1.573869,-0.247636 3.181643,-0.334735 4.748783,-0.637585 0.20602,-0.03981 0.47208,-0.111902 0.74326,-0.191729 0.31307,-0.178719 0.6378,-0.313157 0.95443,-0.39044 h 4.8e-4 z m -56.976501,1.724532 c 0.192451,-0.0026 0.378015,0.03963 0.554062,0.131311 2.158213,1.123912 4.524234,1.678479 6.858054,2.211336 0.25027,0.04238 0.499323,0.09361 0.750741,0.127319 0.238615,0.03199 0.483676,-0.01746 0.721312,0.02196 1.815837,0.301313 3.571142,0.921536 5.322465,1.489867 4.181469,1.390883 8.345654,2.927247 12.294041,4.9634 2.264645,1.122868 4.325048,2.624364 6.481981,3.953841 1.21543,0.639952 2.323192,1.498405 3.565907,2.080525 0.61767,0.289332 1.140242,0.463772 1.783187,0.699998 2.141446,0.763858 4.422258,0.887266 6.636614,1.261696 1.849362,0.312709 3.691233,0.673279 5.536897,1.010054 2.20639,0.301109 4.41679,0.562856 6.63054,0.785375 0.0846,-0.04267 0.17545,-0.07435 0.27236,-0.09436 2.70208,-0.558098 5.28911,-1.60026 7.78165,-2.829452 1.0307,-0.508285 2.02267,-1.102773 3.0338,-1.654132 0.15967,-0.08707 0.32731,-0.129369 0.50081,-0.131813 1.49125,-0.02099 3.40911,2.901865 4.31711,5.631942 1.12195,0.01761 2.24414,0.02536 3.36643,0.02298 1.5971,-0.0034 3.23144,-0.0356 4.87118,-0.104851 -0.49948,-3.088228 2.45522,-9.854685 4.68197,-9.983717 0.043,-0.0026 0.0856,-0.0026 0.12801,0 0.18089,0.01079 0.35655,0.06801 0.52416,0.177247 2.34411,1.527742 4.56974,3.250016 7.11406,4.395713 1.06066,0.477609 2.10751,0.839837 3.17909,1.195289 1.15102,-0.310879 2.36556,-0.347619 3.57572,-0.339515 0.007,9.9e-5 0.0147,-1.05e-4 0.022,0 0.11338,-0.04977 0.25718,-0.06043 0.43587,-0.02796 0.14361,0.0261 0.22166,0.03887 0.23265,0.04394 h 4.8e-4 v 5.11e-4 h 4.7e-4 v 5.11e-4 l -4.7e-4,5.12e-4 c -1.8e-4,6.9e-5 -0.001,5.11e-4 -0.001,5.11e-4 -0.0229,0.0042 -0.24455,-0.01176 -0.66758,-0.01797 -0.31792,0.13954 -0.3951,0.582889 -0.31955,1.222749 1.45312,0.357221 2.96716,0.695535 4.36384,0.463839 3.08448,-0.511688 2.49581,12.487633 -0.60218,12.079714 -1.73723,-0.228741 -3.45428,-0.598181 -5.15709,-1.03402 -0.33925,0.182424 -0.68024,0.361424 -1.02964,0.520257 -2.13178,0.969069 -4.29947,1.66185 -6.64596,1.636159 -1.10922,-0.02993 -2.2193,-0.03369 -3.32765,-0.08937 -3.88153,-0.194985 -7.75393,-0.568712 -11.63487,-0.776888 -4.02427,-0.215865 -8.05142,-0.379032 -12.07961,-0.496291 -1.22267,0.600899 -2.45036,1.189765 -3.6869,1.757984 -0.87717,0.403081 -1.78305,-0.473811 -2.53019,-1.903276 -2.66916,-0.0478 -5.33862,-0.07733 -8.007757,-0.09037 -1.950715,0.06098 -3.900702,0.179647 -5.852237,0.182738 -1.167879,0.0018 -3.05288,-0.23287 -4.266196,-0.408414 C 86.270815,68.437351 84.957284,68.216095 83.801647,67.908536 83.31696,67.779546 82.847163,67.594709 82.369771,67.437712 81.260818,67.016253 80.514386,66.755253 79.423331,66.24242 77.929579,65.5403 76.538581,64.631686 75.127237,63.763966 73.157512,62.550264 71.25306,61.231278 69.280595,60.024807 66.100444,58.227711 62.728412,56.75795 59.267745,55.712477 58.62489,55.581252 57.984767,55.434475 57.339268,55.319041 55.72873,55.031028 54.072725,55.034914 52.504994,54.473249 49.37984,53.57184 46.282154,52.56665 43.198036,51.514485 40.399595,50.559775 44.838604,40.559315 47.72538,40.521711 Z m 134.616381,14.55068 c 2.62498,-0.05589 6.5666,9.125064 4.07279,10.31624 -1.07588,0.513894 -2.15181,1.027903 -3.22768,1.541794 -1.10263,0.437043 -2.19303,0.912055 -3.30289,1.327103 -0.14092,0.616965 -0.39299,1.237085 -0.79138,1.857341 -0.2178,0.339101 -0.47342,0.644349 -0.75775,0.920682 0.27785,-0.02457 0.55509,-0.05201 0.83296,-0.08038 0.47149,-0.390067 0.98227,-0.7384 1.47392,-1.090439 0.33789,-0.214017 0.66646,-0.446 1.01376,-0.642081 0.85425,-0.482308 1.03129,-0.490384 1.85653,-0.871754 1.00527,-0.464562 1.99326,-0.974051 3.01465,-1.398997 0.13752,-0.05721 0.27679,-0.08494 0.41718,-0.08588 2.85475,-0.01899 6.14104,11.06498 3.19264,11.660317 -0.73448,0.148306 -1.41363,0.460701 -2.09339,0.780382 -0.51012,0.239905 -1.30535,0.539795 -1.14877,0.692511 -0.3681,0.305355 -0.42001,0.356203 -0.81287,0.667044 h -9.6e-4 v 5.11e-4 h -9.5e-4 -4.8e-4 l -4.8e-4,5.12e-4 c -0.0294,0.02324 -0.0605,0.04805 -0.0939,0.07439 -0.0883,0.06954 -0.34264,0.20202 -0.3457,0.238658 v 10e-4 5.12e-4 5.11e-4 5.11e-4 l 4.8e-4,5.11e-4 v 5.12e-4 l 4.8e-4,5.11e-4 4.7e-4,5.11e-4 9.6e-4,5.11e-4 4.8e-4,5.12e-4 c 0.004,0.0028 0.0136,0.0048 0.0271,0.004 0.0636,-0.0036 0.31021,-0.228358 0.39757,-0.310057 -0.058,0.05562 -0.20431,0.197498 -0.49193,0.48181 -1.25273,0.962718 -1.30568,1.150512 -3.12397,1.623177 -0.72714,0.189029 -1.875,0.128883 -2.67268,0.164764 -0.66224,0.02979 -1.40076,0.104953 -2.06349,0.165764 -0.27146,0.0267 -0.54281,0.05316 -0.81427,0.07989 -2.31381,0.227517 -3.25604,-6.56392 -2.29381,-10.051617 -0.0787,0.02953 -0.15732,0.05868 -0.23545,0.08738 -0.9475,0.347683 -1.99578,-0.190031 -2.99362,-0.285094 -4.07149,-0.987479 -7.94146,-2.685806 -11.8834,-4.120604 -2.66218,-0.968987 0.44873,-10.867025 3.14872,-10.864954 h 4.8e-4 4.8e-4 c 0.13262,2.12e-4 0.26437,0.02464 0.39429,0.07489 1.33554,0.516481 2.67766,1.030076 4.03261,1.498855 3.14864,-1.062145 6.52626,-0.926244 9.70078,-1.918754 0.95024,-0.297091 1.85438,-0.742229 2.78153,-1.113408 0.76135,-0.430023 1.52264,-0.860132 2.28399,-1.290153 0.161,-0.09094 0.33001,-0.135575 0.50501,-0.139302 z m -4.06251,16.683629 c -0.0756,0.06707 -0.16544,0.147217 -0.27703,0.24465 0.27176,-0.190448 0.11766,-0.08051 0.27703,-0.24465 z" />
    </clipPath>
    <filter
       inkscape:collect="always"
       style="color-interpolation-filters:sRGB"
       id="filter77"
       x="-0.10764031"
       y="-0.40124768"
       width="1.2152806"
       height="1.8024954">
      <feGaussianBlur
         inkscape:collect="always"
         stdDeviation="8.2671194"
         id="feGaussianBlur77" />
    </filter>
    <filter
       inkscape:label="3D Marble"
       inkscape:menu="Materials"
       inkscape:menu-tooltip="3D warped marble texture"
       height="1.3582758"
       y="-0.17913791"
       width="1.1292564"
       x="-0.064628213"
       style="color-interpolation-filters:sRGB"
       id="filter87">
      <feGaussianBlur
         stdDeviation="4"
         result="result8"
         id="feGaussianBlur83" />
      <feTurbulence
         seed="50"
         result="result7"
         type="turbulence"
         numOctaves="7"
         baseFrequency="0.01 0.01"
         id="feTurbulence83" />
      <feColorMatrix
         result="result5"
         values="1 0 0 0 0 0 1 0 0 0 0 0 1 0 0 0 0 0 1.4 0 "
         id="feColorMatrix83" />
      <feComposite
         result="result6"
         in="result5"
         operator="in"
         in2="result8"
         id="feComposite83" />
      <feDisplacementMap
         in="result5"
         xChannelSelector="A"
         yChannelSelector="A"
         scale="100"
         result="result4"
         in2="result6"
         id="feDisplacementMap83" />
      <feFlood
         flood-opacity="1"
         flood-color="rgb(224,224,224)"
         id="feFlood83" />
      <feComposite
         result="result2"
         operator="atop"
         in2="result4"
         id="feComposite84" />
      <feComposite
         in="result2"
         operator="atop"
         in2="SourceGraphic"
         result="result9"
         id="feComposite85" />
      <feBlend
         result="fbSourceGraphic"
         mode="darken"
         in2="result9"
         id="feBlend85" />
      <feGaussianBlur
         stdDeviation="5"
         in="fbSourceGraphic"
         result="result0"
         id="feGaussianBlur85" />
      <feSpecularLighting
         in="result0"
         result="result1"
         lighting-color="#ffffff"
         surfaceScale="8"
         specularConstant="0.80000001"
         specularExponent="30"
         id="feSpecularLighting85">
        <feDistantLight
           elevation="55"
           azimuth="235"
           id="feDistantLight85" />
      </feSpecularLighting>
      <feComposite
         in2="fbSourceGraphic"
         in="result1"
         result="result2"
         operator="in"
         id="feComposite86" />
      <feComposite
         in="fbSourceGraphic"
         result="result4"
         operator="arithmetic"
         k2="1"
         k3="1"
         in2="result2"
         id="feComposite87"
         k1="0"
         k4="0" />
    </filter>
    <filter
       inkscape:label="Dripping"
       height="1.5607542"
       width="1.1352405"
       y="-0.33216061"
       x="-0.067620261"
       inkscape:menu="Protrusions"
       inkscape:menu-tooltip="Random paint streaks downwards"
       style="color-interpolation-filters:sRGB"
       id="filter106">
      <feConvolveMatrix
         order="3 3"
         kernelMatrix="0 -1 0 0 -1 0 0 2 0"
         result="result1"
         divisor="6.03"
         id="feConvolveMatrix104" />
      <feTurbulence
         numOctaves="1"
         baseFrequency="0.078 0.010"
         result="result0"
         id="feTurbulence104" />
      <feColorMatrix
         result="result2"
         values="1 0 0 0 0 0 1 0 0 0 0 0 1 0 0 0 0 0 10 -3.5"
         id="feColorMatrix104" />
      <feComposite
         in2="result2"
         in="result1"
         operator="in"
         id="feComposite104" />
      <feMorphology
         operator="dilate"
         radius="1 30"
         id="feMorphology104" />
      <feColorMatrix
         values="1 0 0 0 0 0 1 0 0 0 0 0 1 0 0 0 0 0 50 0"
         result="result3"
         id="feColorMatrix105" />
      <feOffset
         dx="0"
         dy="1.4"
         result="result4"
         id="feOffset105" />
      <feTurbulence
         numOctaves="2"
         baseFrequency="0.032 0.025"
         result="result8"
         id="feTurbulence105" />
      <feColorMatrix
         values="0 0 0 0 0.52 0 -0.4 0 0 0.45 0 0 1 0 0 0 0 0 1 0"
         result="result91"
         id="feColorMatrix106" />
      <feDisplacementMap
         in="result4"
         xChannelSelector="R"
         yChannelSelector="G"
         scale="100"
         result="result9"
         in2="result91"
         id="feDisplacementMap106" />
      <feComposite
         in="SourceGraphic"
         in2="result9"
         id="feComposite106" />
    </filter>
    <filter
       inkscape:collect="always"
       style="color-interpolation-filters:sRGB"
       id="filter107"
       x="-1.3781691"
       y="-0.034197745"
       width="3.7563382"
       height="1.0683955">
      <feGaussianBlur
         inkscape:collect="always"
         stdDeviation="2.0951895"
         id="feGaussianBlur107" />
    </filter>
    <filter
       inkscape:collect="always"
       style="color-interpolation-filters:sRGB"
       id="filter108"
       x="-1.0076416"
       y="-0.05500773"
       width="3.0152832"
       height="1.1100155">
      <feGaussianBlur
         inkscape:collect="always"
         stdDeviation="3.3701528"
         id="feGaussianBlur108" />
    </filter>
  </defs>
  <g
     id="g44"
     transform="matrix(1.0982429,0,0,1.2285471,28.181776,-16.043123)"
     style="filter:url(#filter106)">
    <rect
       style="opacity:1;fill:#1a1a1a;fill-opacity:0.219027;stroke:none;stroke-width:16.2969;stroke-linecap:butt;stroke-linejoin:bevel;stroke-dasharray:none;stroke-opacity:1;paint-order:markers stroke fill;filter:url(#filter87)"
       id="rect83"
       width="334.21936"
       height="120.57749"
       x="-46.591026"
       y="-5.9486742"
       transform="matrix(1,0,0,1.2774454,0,-37.796051)" />
    <rect
       style="opacity:1;mix-blend-mode:normal;fill:#3752fe;fill-opacity:0.843137;stroke:none;stroke-width:12.7626;stroke-linecap:butt;stroke-linejoin:bevel;stroke-dasharray:none;stroke-opacity:1;paint-order:markers stroke fill;filter:url(#filter107)"
       id="rect107"
       width="3.6486487"
       height="147.04054"
       x="321.81082"
       y="-2.9189191"
       transform="matrix(0.61808876,-0.2154173,0.1735844,0.7670448,43.610238,72.872176)" />
    <rect
       style="opacity:1;fill:#6d8e01;fill-opacity:0.843137;stroke:none;stroke-width:18.93;stroke-linecap:butt;stroke-linejoin:bevel;stroke-dasharray:none;stroke-opacity:1;paint-order:markers stroke fill;filter:url(#filter108)"
       id="rect106"
       width="8.0270271"
       height="147.04054"
       x="4.3783841"
       y="-17.513514"
       transform="matrix(0.91054539,0,0,0.81396962,-25.660786,13.058615)" />
    <path
       style="opacity:1;fill:#2a00d6;fill-opacity:0.898039;stroke:none;stroke-width:98.6638;stroke-linecap:butt;stroke-linejoin:bevel;stroke-dasharray:none;stroke-opacity:1;paint-order:markers stroke fill"
       d="m 835.47924,325.3587 c -4.06806,-4.05476 -6.35941,-16.36871 -5.78707,-31.10034 l 0.47595,-12.25081 -4.33655,6.9e-4 c -6.22024,10e-4 -20.49981,-4.61591 -41.64075,-13.4634 -21.46341,-8.98244 -21.99563,-9.62068 -19.82124,-23.76936 2.51409,-16.35907 9.93567,-31.71738 15.32676,-31.71738 1.33111,0 6.20113,1.53633 10.82228,3.41407 6.59293,2.67895 9.24228,3.13597 12.30415,2.12251 2.14614,-0.71036 10.97949,-2.59868 19.62967,-4.19627 14.67017,-2.7094 23.91718,-6.11866 35.46882,-13.07693 3.98754,-2.40194 4.5604,-2.43192 7.66014,-0.40089 7.3413,4.8102 17.54835,30.89415 15.58585,39.82935 -0.78817,3.58851 -2.81227,5.08498 -15.60974,11.54066 -13.49683,6.80847 -14.92352,7.90842 -17.37611,13.39661 -1.46958,3.2885 -2.91769,6.44494 -3.21802,7.0143 -1.0125,1.91952 4.46808,-0.75148 10.71655,-5.22277 8.11616,-5.80778 22.62426,-13.05014 26.14243,-13.05014 5.95626,0 14.77663,20.28148 16.19904,37.2479 0.93817,11.19054 -0.4605,14.15208 -7.70948,16.32392 -3.0372,0.90997 -8.81397,4.64809 -12.83725,8.30694 -10.08085,9.1677 -12.32084,10.10533 -26.56042,11.11783 -11.54404,0.82083 -12.69249,0.66708 -15.43501,-2.06649 z"
       id="path79"
       transform="matrix(0.24091513,0,0,0.21536279,-25.660786,13.058615)" />
    <path
       style="opacity:1;fill:#2a00d6;fill-opacity:0.898039;stroke:none;stroke-width:98.6638;stroke-linecap:butt;stroke-linejoin:bevel;stroke-dasharray:none;stroke-opacity:1;paint-order:markers stroke fill"
       d="m 546.14718,266.10178 -3.71835,-4.87502 -36.09206,0.29896 c -33.33651,0.27615 -36.92147,0.0701 -46.95615,-2.69835 -15.79954,-4.35896 -28.12817,-10.84054 -49.12312,-25.82571 -30.52984,-21.79069 -48.28596,-30.40391 -72.0087,-34.93027 -7.79892,-1.48806 -21.93682,-5.4783 -31.41756,-8.86721 -28.37269,-10.14188 -25.30022,-7.74242 -24.48599,-19.12238 0.57686,-8.06236 1.77589,-11.90555 6.7331,-21.58128 3.31718,-6.47466 7.69976,-12.99715 9.73905,-14.49443 3.70721,-2.72189 3.70893,-2.72183 10.95757,0.39645 8.87416,3.81756 16.81607,6.18857 29.49694,8.80613 16.87542,3.48338 55.86717,19.26307 73.05412,29.56449 4.55075,2.72761 15.1292,9.78134 23.50767,15.67496 8.37846,5.89363 18.61766,12.25227 22.75378,14.13031 7.32932,3.32796 39.25859,9.93108 68.10081,14.08356 13.16207,1.89498 14.04596,1.85572 22.75378,-1.01079 8.85323,-2.91439 24.65483,-10.49302 34.83458,-16.70706 l 5.08958,-3.10685 3.99715,3.82951 c 3.81193,3.65207 8.11323,11.03603 11.2147,19.25212 l 1.43155,3.7923 h 17.11295 17.11293 l 0.96187,-7.69848 c 1.02338,-8.19084 4.42142,-19.16896 8.32544,-26.89715 2.4783,-4.90593 8.75894,-12.29095 10.45289,-12.29095 0.53855,0 6.47289,4.06392 13.18742,9.03092 6.71453,4.96701 16.18265,10.93979 21.04029,13.27286 7.61621,3.65798 9.90709,4.14446 16.64119,3.53383 7.23307,-0.65587 7.80227,-0.49691 7.71614,2.15484 -0.11129,3.42642 3.67617,4.76939 14.00652,4.9665 6.40021,0.12211 7.42309,0.56078 9.16337,3.92975 4.7111,9.12013 3.90361,34.59448 -1.44339,45.53603 -2.39801,4.90703 -2.78856,5.12203 -8.51743,4.68898 -3.30229,-0.24962 -8.87033,-1.31644 -12.3734,-2.37071 -5.28202,-1.58965 -6.84649,-1.60739 -9.16502,-0.1039 -1.53768,0.99713 -6.51912,3.24399 -11.06988,4.99303 -7.14905,2.74766 -10.5242,3.15041 -24.8223,2.96207 -9.10151,-0.11991 -23.06406,-0.81551 -31.02788,-1.5458 -7.96382,-0.73028 -27.96067,-2.0357 -44.43743,-2.90093 l -29.95778,-1.57315 -7.59955,4.28892 c -4.17975,2.35891 -8.46613,4.28892 -9.52529,4.28892 -1.05917,0 -3.59901,-2.19375 -5.64411,-4.87502 z"
       id="path78"
       transform="matrix(0.24091513,0,0,0.21536279,-25.660786,13.058615)" />
    <path
       style="opacity:1;fill:#2a00d6;fill-opacity:0.898039;stroke:none;stroke-width:98.6638;stroke-linecap:butt;stroke-linejoin:bevel;stroke-dasharray:none;stroke-opacity:1;paint-order:markers stroke fill"
       d="m 813.05789,170.48761 c -7.55577,-10.6111 -12.45696,-37.94901 -8.01812,-44.72354 2.40223,-3.66625 13.09638,-7.00694 47.1622,-14.73275 l 19.27582,-4.37157 2.4257,2.9956 c 3.9322,4.85607 5.72439,13.5545 5.81974,28.24633 0.1,15.40597 -1.9063,22.45873 -6.6354,23.32565 -1.61052,0.29524 -7.5824,1.23657 -13.27085,2.09185 -5.68844,0.85528 -16.5482,3.4465 -24.13279,5.75826 -20.49968,6.24826 -19.23729,6.16958 -22.6263,1.41017 z"
       id="path80"
       transform="matrix(0.24091513,0,0,0.21536279,-25.660786,13.058615)" />
    <path
       style="opacity:1;fill:#2a00d6;fill-opacity:0.898039;stroke:none;stroke-width:98.6638;stroke-linecap:butt;stroke-linejoin:bevel;stroke-dasharray:none;stroke-opacity:1;paint-order:markers stroke fill"
       d="m 926.00979,291.63984 c -4.92999,-0.64865 -12.962,-2.01582 -17.84892,-3.03815 l -8.8853,-1.85879 -1.68064,-6.58809 -1.68064,-6.58809 7.80791,0.96013 c 4.29435,0.52808 8.17125,1.52333 8.61533,2.21168 0.44408,0.68835 4.58826,1.35633 9.2093,1.48441 4.85426,0.13455 8.06261,0.78185 7.59837,1.533 -0.44193,0.71506 -0.1838,0.91712 0.57362,0.449 0.75743,-0.46811 10.57879,-0.23481 21.82524,0.51845 15.29395,1.02435 20.69699,0.96684 21.43553,-0.22813 0.54309,-0.87874 1.70682,-1.15309 2.58608,-0.60968 1.84105,1.13783 15.25791,-1.77452 15.25791,-3.31197 0,-0.56276 2.59801,-1.80157 5.77335,-2.75293 3.73827,-1.12002 8.76157,-4.59921 14.25087,-9.87033 4.6627,-4.4773 8.9426,-7.67564 9.5108,-7.10739 0.5683,0.56825 0.908,0.41263 0.755,-0.34583 -0.5664,-2.80702 0.085,-4.96666 1.276,-4.23059 3.1874,1.96988 11.8091,-26.88679 10.3527,-34.65008 -0.4703,-2.5071 -0.3207,-4.55836 0.3326,-4.55836 0.6532,0 1.1877,-3.10279 1.1877,-6.89509 0,-3.79229 -0.3768,-6.89508 -0.8372,-6.89508 -0.4605,0 -0.8604,-3.25793 -0.8885,-7.23984 -0.036,-5.02026 -1.4154,-10.40186 -4.5008,-17.55376 -4.2126,-9.76494 -12.9093,-22.3583 -14.9887,-21.70473 -0.5272,0.1657 -4.1853,-2.92063 -8.1292,-6.8585 -7.65828,-7.64657 -28.40416,-19.87286 -34.53554,-20.35301 -6.25543,-0.48987 -14.20552,-2.42474 -13.37507,-3.25519 0.43342,-0.43341 -1.2233,-1.4449 -3.68159,-2.24774 -3.32155,-1.08477 -4.80018,-2.61697 -5.75654,-5.9651 -1.41748,-4.96245 -0.35738,-7.25083 2.1824,-4.71104 0.89751,0.89751 3.1124,1.63183 4.92199,1.63183 4.81154,0 21.50084,4.55014 22.6832,6.1843 0.55723,0.77016 1.02265,0.85889 1.03426,0.19718 0.0116,-0.66171 0.95195,-0.43059 2.08964,0.51361 1.13769,0.9442 2.06853,1.2882 2.06853,0.76446 0,-0.52375 1.86167,0.37336 4.13705,1.99357 2.27538,1.62021 4.13705,2.62294 4.13705,2.22828 0,-0.39467 1.62946,0.79257 3.62103,2.63829 1.99157,1.84572 4.16352,3.02058 4.82656,2.6108 0.66304,-0.40978 1.20553,-0.0879 1.20553,0.71535 0,0.80322 0.648,1.4604 1.4401,1.4604 3.3369,0 20.0856,14.39483 24.4942,21.05181 2.6291,3.96992 5.8631,8.45915 7.1867,9.97607 1.3236,1.51692 4.1768,7.72249 6.3404,13.79017 3.6337,10.19071 3.9348,12.55721 3.948,31.02787 0.033,46.01044 -12.0291,67.19825 -46.54108,81.75406 -9.79363,4.13059 -10.42987,4.21068 -36.1703,4.55334 -14.41073,0.19183 -30.23495,-0.18192 -35.16493,-0.83057 z"
       id="path81"
       transform="matrix(0.24091513,0,0,0.21536279,-25.660786,13.058615)" />
    <path
       style="display:inline;opacity:1;fill:#2a00d6;fill-opacity:0.898039;stroke:none;stroke-width:98.6638;stroke-linecap:butt;stroke-linejoin:bevel;stroke-dasharray:none;stroke-opacity:1;paint-order:markers stroke fill"
       d="m 929.79021,155.74328 c -9.96371,-2.41446 -14.88941,-4.9507 -21.87929,-11.26565 -7.25329,-6.55291 -9.25141,-10.71055 -10.58174,-22.01825 -0.94502,-8.03258 -0.56612,-11.45999 2.63768,-23.859678 4.83008,-18.693922 5.98873,-21.547 9.07851,-22.354994 7.25245,-1.89656 25.46638,8.246452 32.89909,18.32092 2.56587,3.47785 3.34785,6.149652 3.18224,10.872812 -0.16817,4.79593 1.49182,10.29747 7.09061,23.49963 8.44432,19.91202 9.38152,26.19616 4.13085,27.69821 -5.57689,1.59536 -18.01521,1.17713 -26.55795,-0.893 z"
       id="path82"
       transform="matrix(0.24091513,0,0,0.21536279,-25.660786,13.058615)" />
    <path
       style="display:inline;opacity:1;fill:#2a00d6;fill-opacity:0.898039;stroke:none;stroke-width:98.6638;stroke-linecap:butt;stroke-linejoin:bevel;stroke-dasharray:none;stroke-opacity:1;paint-order:markers stroke fill"
       d="m 460.36621,180.05699 c -9.60668,-1.57032 -10.58028,-3.16415 -9.72674,-15.92316 0.87954,-13.14755 5.47015,-26.67235 11.31583,-33.33854 l 4.15238,-4.73522 7.43659,1.44062 c 4.09012,0.79234 14.94987,1.50032 24.13279,1.5733 15.18434,0.12067 21.3616,-0.34957 31.04155,-2.36298 3.17837,-0.66109 3.22782,-0.55882 1.21511,2.51296 -3.41831,5.217 -4.05819,11.0613 -2.53826,23.18296 0.7892,6.29401 1.7035,11.71225 2.03178,12.04053 1.97126,1.97125 7.67024,-3.00051 19.47088,-16.98628 13.71299,-16.25223 18.13341,-20.13893 19.17385,-16.85881 0.3111,0.98079 1.23501,6.7477 2.05314,12.81538 1.75316,13.00237 0.47917,19.23882 -5.06213,24.78011 -5.25184,5.25185 -9.60137,7.24035 -22.71234,10.38353 -9.85951,2.36369 -15.87985,2.71762 -43.83606,2.57705 -17.82379,-0.0896 -34.99056,-0.58527 -38.14837,-1.10145 z"
       id="path83"
       transform="matrix(0.24091513,0,0,0.21536279,-25.660786,13.058615)" />
    <text
       xml:space="preserve"
       style="font-style:normal;font-variant:normal;font-weight:normal;font-stretch:normal;font-size:78.2799px;line-height:0;font-family:Aporrheton;-inkscape-font-specification:'Aporrheton, Normal';font-variant-ligatures:normal;font-variant-caps:normal;font-variant-numeric:normal;font-variant-east-asian:normal;writing-mode:lr-tb;direction:ltr;display:inline;opacity:1;mix-blend-mode:normal;fill:#000000;stroke:#3d3d3d;stroke-width:16.2969;stroke-linecap:round;stroke-linejoin:bevel;stroke-dasharray:none;stroke-opacity:1;paint-order:markers stroke fill;filter:url(#filter77)"
       x="14.229724"
       y="77.716217"
       id="text77"
       sodipodi:insensitive="true"><tspan
         sodipodi:role="line"
         id="tspan77"
         style="fill:#000000;stroke:#3d3d3d;stroke-width:16.2969;stroke-dasharray:none;stroke-opacity:1"
         x="14.229724"
         y="77.716217">VOIDSHIFT</tspan></text>
    <text
       xml:space="preserve"
       style="font-style:normal;font-variant:normal;font-weight:normal;font-stretch:normal;font-size:78.2799px;line-height:0;font-family:Aporrheton;-inkscape-font-specification:'Aporrheton, Normal';font-variant-ligatures:normal;font-variant-caps:normal;font-variant-numeric:normal;font-variant-east-asian:normal;writing-mode:lr-tb;direction:ltr;display:inline;opacity:1;fill:#2a00d6;fill-opacity:0.898039;stroke:#2a00d6;stroke-width:8.807;stroke-linecap:butt;stroke-linejoin:bevel;stroke-dasharray:none;stroke-opacity:1;paint-order:markers stroke fill;filter:url(#filter44)"
       x="14.229724"
       y="77.716217"
       id="text43"
       clip-path="url(#clipPath76)"
       transform="translate(-0.32984833,0.70504784)"><tspan
         sodipodi:role="line"
         id="tspan43"
         style="fill:#2a00d6;fill-opacity:0.898039;stroke:#2a00d6;stroke-width:8.807;stroke-linecap:butt;stroke-dasharray:none;stroke-opacity:1"
         x="14.229724"
         y="77.716217">VOIDSHIFT</tspan></text>
    <text
       xml:space="preserve"
       style="font-style:normal;font-variant:normal;font-weight:normal;font-stretch:normal;font-size:78.2799px;line-height:0;font-family:Aporrheton;-inkscape-font-specification:'Aporrheton, Normal';font-variant-ligatures:normal;font-variant-caps:normal;font-variant-numeric:normal;font-variant-east-asian:normal;writing-mode:lr-tb;direction:ltr;display:inline;opacity:1;fill:#000000;stroke:#3d3d3d;stroke-width:7.77397;stroke-linecap:round;stroke-linejoin:bevel;stroke-dasharray:none;stroke-opacity:1;paint-order:markers stroke fill"
       x="14.229724"
       y="77.716217"
       id="text44"
       sodipodi:insensitive="true"><tspan
         sodipodi:role="line"
         id="tspan44"
         style="fill:#000000;stroke:#3d3d3d;stroke-width:7.77397;stroke-dasharray:none;stroke-opacity:1"
         x="14.229724"
         y="77.716217">VOIDSHIFT</tspan></text>
    <rect
       style="opacity:1;fill:#000000;fill-opacity:0.219027;stroke:none;stroke-width:16.2969;stroke-linecap:butt;stroke-linejoin:bevel;stroke-dasharray:none;stroke-opacity:1;paint-order:markers stroke fill"
       id="rect87"
       width="1.328904"
       height="0.2969889"
       x="158.06021"
       y="127.69633" />
    <text
       xml:space="preserve"
       style="font-style:normal;font-variant:normal;font-weight:normal;font-stretch:normal;font-size:58.9666px;line-height:0;font-family:Aporrheton;-inkscape-font-specification:'Aporrheton, Normal';font-variant-ligatures:normal;font-variant-caps:normal;font-variant-numeric:normal;font-variant-east-asian:normal;writing-mode:lr-tb;direction:ltr;opacity:1;fill:#ff0000;fill-opacity:0.843137;stroke:none;stroke-width:14.2596;stroke-linecap:butt;stroke-linejoin:bevel;stroke-dasharray:none;stroke-opacity:1;paint-order:markers stroke fill"
       x="36.818668"
       y="104.45193"
       id="text108"
       transform="scale(1.6052318,0.62296298)"><tspan
         sodipodi:role="line"
         id="tspan108"
         style="fill:#ff0000;stroke-width:14.2596"
         x="36.818668"
         y="104.45193">LouisBunt</tspan></text>
  </g>
</svg>
